<svg width="29" height="28" viewBox="0 0 29 28" fill="none" xmlns="http://www.w3.org/2000/svg">
<g clip-path="url(#clip0_360_606)">
<path d="M11.7945 0C5.80642 0 0.951172 4.85529 0.951172 10.8433C0.951172 16.8314 5.80642 21.6867 11.7945 21.6867C14.0971 21.6867 16.2326 20.9684 17.9879 19.745L26.188 27.9439C26.262 28.0179 26.3819 28.0179 26.4521 27.949L27.997 26.4041C28.0684 26.3327 28.0621 26.2102 27.9919 26.14L19.8989 18.0471C21.6032 16.1323 22.6378 13.609 22.6378 10.8433C22.6378 4.85529 17.7826 0 11.7945 0ZM11.7945 20.411C6.51062 20.411 2.22685 16.1272 2.22685 10.8433C2.22685 5.55945 6.51058 1.27572 11.7945 1.27572C17.0784 1.27572 21.3621 5.55945 21.3621 10.8433C21.3621 16.1272 17.0784 20.411 11.7945 20.411Z" fill="black"/>
</g>
<defs>
<clipPath id="clip0_360_606">
<rect width="28" height="28" fill="white" transform="translate(0.5)"/>
</clipPath>
</defs>
</svg>
